<?xml version="1.0" standalone="no"?>
<!DOCTYPE svg PUBLIC "-//W3C//DTD SVG 20010904//EN"
 "http://www.w3.org/TR/2001/REC-SVG-20010904/DTD/svg10.dtd">
<svg version="1.0" xmlns="http://www.w3.org/2000/svg"
 width="407.000000pt" height="407.000000pt" viewBox="0 0 407.000000 407.000000"
 preserveAspectRatio="xMidYMid meet">
<metadata>
Created by potrace 1.11, written by Peter Selinger 2001-2013
</metadata>
<g transform="translate(0.000000,407.000000) scale(0.100000,-0.100000)"
fill="#000000" stroke="none">
<path d="M2000 3419 c-58 -9 -157 -29 -220 -44 -63 -15 -126 -29 -140 -31
-118 -22 -506 -132 -600 -170 -36 -15 -101 -40 -144 -55 -148 -54 -427 -225
-530 -324 -12 -12 -46 -40 -76 -64 -62 -49 -80 -71 -154 -191 -45 -72 -70
-127 -82 -175 -4 -14 -11 -40 -29 -105 -26 -94 -23 -311 6 -425 63 -245 135
-388 339 -678 88 -126 169 -238 180 -250 11 -11 20 -24 20 -28 0 -4 6 -9 14
-12 11 -4 11 2 -1 36 -8 23 -17 58 -20 77 -5 36 -5 41 -18 145 -14 120 -14
264 1 276 16 13 17 11 39 -86 21 -86 42 -152 67 -205 17 -36 39 -85 50 -110
18 -41 124 -218 138 -230 3 -3 17 -23 30 -45 28 -46 49 -70 56 -63 2 3 0 27
-6 54 -11 48 -13 59 -26 159 -15 119 -20 307 -11 365 3 14 8 52 12 85 10 83 9
77 50 200 45 136 59 159 84 144 16 -11 17 -16 4 -68 -8 -31 -16 -68 -18 -83
-2 -16 -8 -43 -13 -62 -9 -32 -8 -194 1 -246 15 -79 72 -219 98 -240 3 -3 14
-20 23 -38 9 -17 46 -62 81 -98 36 -37 65 -70 65 -74 0 -3 -29 -17 -65 -29
-36 -13 -65 -26 -65 -30 1 -15 30 -42 51 -48 13 -3 170 -7 349 -9 348 -3 462
6 500 41 27 24 25 31 -7 43 -16 6 -37 17 -48 25 -19 15 -19 17 25 60 80 77
126 140 169 227 23 47 44 95 46 107 3 13 8 33 11 45 21 88 24 266 4 348 -63
266 -274 480 -515 525 -39 7 -162 7 -200 0 -184 -35 -364 -167 -440 -323 -29
-59 -54 -78 -70 -52 -6 10 65 150 91 181 8 8 14 20 14 26 0 6 3 13 8 15 4 2
25 26 46 53 59 75 284 292 341 330 187 122 315 196 432 251 94 44 142 66 153
69 3 1 21 8 40 17 127 56 242 100 300 113 8 2 60 20 115 39 55 20 101 36 103
36 5 -2 123 23 282 61 220 52 210 50 250 55 19 3 46 7 60 10 14 2 40 7 59 9
19 3 46 7 60 10 111 19 236 36 287 39 33 2 80 7 105 10 72 9 140 17 193 22 42
3 84 9 115 13 3 1 1 5 -5 11 -12 12 -51 14 -149 6 -81 -7 -157 -11 -345 -21
-213 -11 -266 -16 -450 -40 -72 -9 -126 -16 -170 -20 -25 -3 -56 -8 -70 -10
-14 -3 -47 -7 -75 -10 -27 -3 -63 -7 -80 -10 -16 -2 -55 -7 -85 -10 -30 -3
-66 -8 -80 -11 -14 -2 -47 -7 -75 -9 -27 -3 -57 -7 -65 -10 -8 -2 -28 -7 -45
-10 -50 -8 -237 -48 -315 -66 -118 -27 -316 -84 -445 -129 -183 -63 -187 -64
-183 -42 3 14 160 103 177 100 4 -1 22 6 41 14 40 17 73 31 80 33 3 1 23 9 45
19 22 9 65 26 95 36 30 11 78 28 105 38 247 94 232 89 545 163 47 11 93 22
103 25 95 23 153 36 172 39 19 3 48 8 105 20 14 3 54 10 89 16 36 5 67 12 70
14 4 2 33 6 66 9 33 3 76 8 95 10 113 15 220 28 250 31 19 2 69 6 110 9 42 4
87 8 100 11 21 4 77 9 203 19 9 0 16 6 15 11 -2 6 -12 9 -23 8 -11 -1 -74 -4
-140 -8 -66 -3 -151 -8 -190 -11 -38 -2 -101 -6 -140 -9 -194 -11 -265 -16
-320 -21 -33 -3 -80 -7 -105 -9 -56 -4 -150 -14 -210 -20 -25 -3 -70 -8 -100
-10 -30 -3 -71 -7 -90 -10 -19 -3 -55 -7 -80 -10 -85 -10 -275 -35 -296 -39
-12 -2 -45 -7 -75 -11 -30 -3 -88 -13 -129 -22 -41 -8 -84 -17 -95 -19 -11 -2
-29 -6 -40 -8 -83 -18 -165 -36 -185 -39 -14 -3 -54 -13 -90 -22 -36 -9 -72
-18 -80 -20 -8 -2 -53 -13 -100 -24 -97 -24 -100 -24 -100 -12 0 12 73 59 128
80 26 10 73 31 104 45 31 14 59 26 62 26 2 0 17 5 33 12 15 6 30 12 33 13 5 2
26 10 80 32 19 8 42 16 50 18 8 2 76 22 150 45 74 23 142 43 150 45 8 2 15 4
15 5 0 1 7 3 15 5 8 2 53 12 100 24 47 11 97 22 110 25 21 4 163 36 225 51 11
3 56 14 100 24 l80 19 -320 0 c-257 -1 -341 -4 -425 -19z"/>
</g>
</svg>
